<svg height="58" viewBox="0 0 161 58" width="161" xmlns="http://www.w3.org/2000/svg"><path d="m111.264 43.786h-7.935c-.325 0-.583-.2617-.583-.5781v-31.2595c0-4.18049 1.663-11.190588 12.796-11.190588h2.093c.325 0 .583.261658.583.578088v7.19266c0 .32251-.264.57809-.583.57809h-2.093c-2.762 0-3.695.87626-3.695 3.46855v10.5456c0 .3225.264.5781.583.5781h5.205c.325 0 .583.2616.583.578v7.0162c0 .3225-.264.5781-.583.5781h-5.205c-.325 0-.583.2617-.583.5781v10.7525c0 .3225-.263.5842-.583.5842z"/><path d="m5.44881 15.3451c-3.17288 3.2617-4.713287 7.1744-4.553723 11.6288l-.012275 29.6773c0 .2738.227078.4989.503238.4989h7.80638c.27617 0 .50324-.2251.50324-.4989l.01227-14.0385c0-.0669.01228-.1339.03683-.1947.10433-.2556.41123-.3895.68123-.2556 2.1418 1.0467 4.4923 1.5761 7.0269 1.5761.2026 0 .4112-.0061.6138-.0122 4.5046-.1704 8.3525-1.8986 11.4456-5.1359 3.1177-3.2555 4.6949-7.1683 4.6949-11.6226 0-4.6552-1.6938-8.6957-5.0324-12.006-3.3202-3.3469-7.4198-4.97161-12.1576-4.8012-4.5414.1764-8.43848 1.9168-11.56839 5.1845zm4.35733 11.3367c.03682-2.1359.79786-3.9493 2.33826-5.5497 1.4422-1.4969 3.1483-2.2272 5.2226-2.2272 2.2278 0 3.9953.7242 5.5541 2.2698s2.3014 3.3103 2.3382 5.5497c.0368 2.2271-.6628 4.0892-2.1357 5.6957-1.4606 1.5882-3.1974 2.4097-5.3208 2.5192-2.2217.1035-4.0137-.6207-5.6155-2.2819-1.6386-1.6917-2.41799-3.645-2.38116-5.9756z"/><path d="m160.379 40.384c-.332-.3347-.743-.5051-1.228-.5051-.472 0-.877.1582-1.202.4746-.326-.3103-.725-.4746-1.197-.4746-.491 0-.902.1704-1.234.5051-.325.3286-.491.7485-.491 1.2353v2.1115h1.05v-2.1541c0-.1887.061-.3347.202-.4747.135-.1339.289-.2008.479-.2008.178 0 .325.0609.466.2008.142.14.209.2921.209.4747v2.1541h1.043v-2.1541c0-.1887.062-.3347.203-.4747.135-.1339.288-.2008.479-.2008.178 0 .325.0609.466.2008.141.14.209.2921.209.4747v2.1541h1.049v-2.1115c-.012-.4929-.178-.9067-.503-1.2353z"/><path d="m142.042 10.2695c-.325 0-.583.2617-.583.5781v4.1744 13.9533c0 1.6187-.552 2.9209-1.743 4.1014-1.172 1.1623-2.528 1.7282-4.136 1.7282-1.565 0-2.848-.5477-4.038-1.7282-1.222-1.2109-1.792-2.5193-1.792-4.1014v-18.1277c0-.3225-.264-.5781-.583-.5781h-7.936c-.325 0-.583.2617-.583.5781v17.7383c0 4.2535 1.437 7.8681 4.266 10.7342 2.86 2.8965 6.45 4.3691 10.672 4.3691 1.829 0 3.535-.2738 5.112-.8093.375-.1278.767.1521.767.5477v1.9959c0 2.5923-.932 3.4685-3.694 3.4685h-2.093c-.325 0-.583.2617-.583.5781v7.1927c0 .3225.264.5781.583.5781h2.093c11.133 0 12.796-7.0101 12.796-11.1906v-35.2027c0-.3225-.264-.5781-.583-.5781z"/><path d="m153.899 38.7773h-1.049v3.6641c0 .4808.19 1.2903 1.473 1.2903h.307v-.9617h-.307c-.319 0-.424-.1034-.424-.4017v-1.479h.731v-1.0042h-.731z"/><path d="m69.7651 22.3795c-.7242-2.6958-1.9639-5.4584-4.0628-7.5456-3.2526-3.2313-7.3461-4.7343-11.9121-4.7343-4.7685 0-8.911 1.7039-12.3048 5.0689-3.4307 3.3469-5.0938 7.4787-4.9158 12.2495.1718 4.5943 1.9577 8.5192 5.3085 11.6713 3.3386 3.2008 7.3523 4.7464 11.9121 4.5882h11.2677c.2823 0 .5155-.2251.5155-.5111v-7.856c0-.2799-.227-.5111-.5155-.5111-.1227 0-11.8814-.1096-11.8814-.1096v-.0061c-2.0498-.1034-3.8111-.8641-5.3638-2.3367-.1412-.1338-.2762-.2738-.405-.4137h14.956c5.0263.006 8.6963-4.7282 7.4014-9.5537zm-9.936 1.5395h-13.6857c.3805-.8763.9451-1.6734 1.7061-2.428 1.5834-1.5699 3.3938-2.3184 5.6891-2.3549 2.283-.0365 4.1916.6693 5.8364 2.1541.4418.4016.8285.8215 1.1537 1.2657.4174.5659.0062 1.3631-.6996 1.3631z"/><path d="m88.552 10.1475c-4.6335.1704-8.5919 1.9411-11.7709 5.2636-3.2282 3.3104-4.787 7.2901-4.6274 11.8113v15.8945c0 .2799.2271.5111.5155.5111h7.9291c.2823 0 .5155-.2251.5155-.5111 0-.1217.1105-16.5091.1105-16.5091h.0061c.1044-2.0324.8715-3.7789 2.3567-5.3184 1.4668-1.5213 3.2035-2.2637 5.3086-2.2637 1.9822 0 3.6024.5599 5.0385 1.7586.356.2982.8776.286 1.2029-.0426l5.1309-5.0872c.356-.3529.343-.9371-.031-1.2778-3.2527-2.9635-7.1865-4.39353-11.685-4.2292z"/></svg>